<?xml version="1.0" standalone="no"?>
<!DOCTYPE svg PUBLIC "-//W3C//DTD SVG 20010904//EN"
 "http://www.w3.org/TR/2001/REC-SVG-20010904/DTD/svg10.dtd">
<svg version="1.0" xmlns="http://www.w3.org/2000/svg"
 width="32.000000pt" height="32.000000pt" viewBox="0 0 148.000000 148.000000"
 preserveAspectRatio="xMidYMid meet">

<g transform="translate(0.000000,148.000000) scale(0.100000,-0.100000)"
fill="#000000" stroke="none">
<path d="M664 1469 c-168 -16 -308 -83 -435 -209 -168 -166 -243 -374 -218
-602 21 -182 129 -378 209 -378 l31 0 -45 64 c-155 216 -178 464 -64 695 60
121 178 240 299 299 334 165 733 30 894 -303 96 -198 98 -385 4 -580 -67 -141
-173 -247 -314 -314 -129 -62 -259 -83 -395 -62 -85 13 -193 61 -216 96 -28
43 -34 85 -19 122 14 33 15 34 39 18 30 -20 45 -13 98 42 40 42 88 126 88 154
0 10 -9 37 -21 59 l-21 40 21 69 c24 77 99 232 133 274 13 15 45 35 73 45 34
12 57 28 72 52 45 66 69 200 41 228 -15 15 -62 15 -127 1 -43 -9 -58 -19 -96
-62 -140 -160 -262 -387 -326 -611 -33 -112 -36 -158 -13 -201 14 -28 14 -32
-8 -70 -34 -60 -31 -132 7 -187 39 -54 121 -103 207 -123 83 -19 242 -19 329
-1 254 54 466 245 545 491 35 107 43 267 21 377 -75 362 -420 612 -793 577z"/>
<path d="M962 1178 c-7 -40 -26 -100 -42 -132 -17 -33 -29 -60 -28 -62 2 -1
21 -7 43 -13 34 -9 44 -8 65 7 51 38 89 185 58 224 -17 20 -59 48 -73 48 -6 0
-17 -33 -23 -72z"/>
<path d="M627 437 c-23 -46 -54 -90 -83 -116 -25 -24 -44 -44 -42 -46 22 -19
74 -35 98 -30 33 7 80 57 110 115 32 63 27 89 -26 133 -21 17 -21 16 -57 -56z"/>
</g>
</svg>
